<?xml version="1.0" encoding="utf-8"?>
<!-- Generator: Adobe Illustrator 28.2.0, SVG Export Plug-In . SVG Version: 6.00 Build 0)  -->
<svg version="1.1" id="Layer_1" xmlns="http://www.w3.org/2000/svg" xmlns:xlink="http://www.w3.org/1999/xlink" x="0px" y="0px"
	 viewBox="0 0 429.2 143.6" style="enable-background:new 0 0 429.2 143.6;" xml:space="preserve">
<style type="text/css">
	.st0{enable-background:new    ;}
	.st1{fill:#6D6E71;}
	.st2{fill:#98BCCF;}
	.st3{fill:none;stroke:#98BCCF;stroke-width:8;stroke-linecap:round;stroke-miterlimit:42.67;}
	.st4{fill:none;stroke:#6D6E71;stroke-width:8;stroke-linecap:round;stroke-miterlimit:42.67;}
</style>
<g class="st0">
	<path class="st1" d="M14.7,110.5c-1.6,0-2.9-0.5-4-1.4c-1-0.9-1.5-2-1.5-3.2v-65c0-1.2,0.5-2.3,1.5-3.2c1-0.9,2.3-1.4,4-1.4
		c1.4,0,2.7,0.5,3.7,1.4c1,0.9,1.5,2,1.5,3.2v65c0,1.2-0.5,2.3-1.5,3.2C17.4,110.1,16.1,110.5,14.7,110.5z M54.3,110.4
		c-2.1,0-3.8-0.8-5-2.5l-20.9-30c-1.5-2.3-1.6-4.6-0.1-6.9l19.9-31.9c1.1-1.8,2.8-2.8,5-2.8c1.5,0,2.8,0.4,3.9,1.3
		c1.1,0.9,1.6,1.9,1.6,3.2c0,0.8-0.3,1.7-0.9,2.6L38.6,74.3l20.2,28.6c0.7,0.8,1,1.7,1,2.8c0,1.3-0.6,2.4-1.7,3.4
		C57,110,55.7,110.4,54.3,110.4z"/>
</g>
<g class="st0">
	<path class="st2" d="M219.8,110.5c-1.6,0-2.9-0.5-4-1.4c-1-0.9-1.5-2-1.5-3.2v-65c0-1.2,0.5-2.3,1.5-3.2c1-0.9,2.3-1.4,4-1.4
		c1.4,0,2.7,0.5,3.7,1.4c1,0.9,1.5,2,1.5,3.2v65c0,1.2-0.5,2.3-1.5,3.2C222.5,110.1,221.3,110.5,219.8,110.5z M259.4,110.4
		c-2.1,0-3.8-0.8-5-2.5l-20.9-30c-1.5-2.3-1.6-4.6-0.1-6.9l19.9-31.9c1.1-1.8,2.8-2.8,5-2.8c1.5,0,2.8,0.4,3.9,1.3
		c1.1,0.9,1.6,1.9,1.6,3.2c0,0.8-0.3,1.7-0.9,2.6l-19.2,30.8l20.2,28.6c0.7,0.8,1,1.7,1,2.8c0,1.3-0.6,2.4-1.7,3.4
		C262.2,110,260.9,110.4,259.4,110.4z"/>
</g>
<g class="st0">
	<path class="st1" d="M119.5,100.8c-0.6,0.5-1.4,0.8-2.3,0.8c-0.9,0-1.6-0.3-2.3-0.8c-0.6-0.5-1-1.2-1-2v-41c0-0.7,0.3-1.4,1-1.9
		c0.6-0.5,1.4-0.8,2.3-0.8c0.9,0,1.6,0.3,2.3,0.8c0.6,0.5,1,1.2,1,1.9v14.9c0.4-1.9,1.5-3.5,3.4-4.8s4.1-2,6.6-2
		c3.5,0,6.4,1,8.5,3.1c2.2,2.1,3.3,5.1,3.3,9.1v20.7c0,0.8-0.3,1.5-0.9,2c-0.6,0.5-1.4,0.8-2.3,0.8c-0.9,0-1.6-0.3-2.2-0.8
		s-0.9-1.2-0.9-2V78.3c0-2.4-0.7-4.3-2-5.5c-1.3-1.3-3.1-1.9-5.3-1.9c-2.4,0-4.3,0.7-5.9,2.2c-1.6,1.5-2.3,3.4-2.3,5.8v20
		C120.5,99.6,120.1,100.3,119.5,100.8z"/>
</g>
<g class="st0">
	<path class="st1" d="M163.1,101.7c-4.4,0-7.9-1.1-10.5-3.3c-2.6-2.2-3.9-5.1-3.9-8.8V78c0-3.6,1.3-6.5,3.8-8.8
		c2.6-2.2,6-3.3,10.3-3.3c4.3,0,7.7,1.1,10.3,3.3c2.6,2.2,3.9,5.1,3.9,8.8v4.5c0,2.1-1.2,3.2-3.7,3.2h-18.3v4.2
		c0,2.2,0.7,3.9,2.1,5.1c1.4,1.2,3.4,1.8,6.1,1.8c3.9,0,6.4-1.4,7.5-4.2c0.6-1.4,1.6-2.1,3-2.1c0.9,0,1.6,0.2,2.1,0.7
		c0.5,0.5,0.8,1.1,0.8,1.8c0,1.3-0.5,2.5-1.5,3.7C172.5,100,168.5,101.7,163.1,101.7z M154.9,77.8v3.3h15.7v-3.3
		c0-2.2-0.7-3.9-2-5.1c-1.4-1.3-3.3-1.9-5.9-1.9s-4.5,0.6-5.8,1.9C155.5,73.9,154.9,75.6,154.9,77.8z"/>
</g>
<g class="st0">
	<path class="st2" d="M322.2,101.6c-0.9,0-1.6-0.3-2.3-0.8c-0.6-0.5-1-1.2-1-2v-30c0-0.8,0.3-1.5,1-2c0.6-0.5,1.4-0.8,2.3-0.8
		c0.9,0,1.6,0.3,2.2,0.8c0.6,0.5,0.9,1.2,0.9,2v5c0.6-2.4,1.6-4.2,3.2-5.6c1.6-1.4,3.5-2,5.7-2c2.3,0,3.5,0.9,3.5,2.7
		c0,0.8-0.3,1.4-0.9,1.9c-0.6,0.5-1.4,0.8-2.3,0.8c-2.8,0-5,0.8-6.7,2.5c-1.7,1.7-2.5,3.9-2.5,6.7v18c0,0.8-0.3,1.5-0.9,2
		S323.1,101.6,322.2,101.6z"/>
</g>
<g class="st0">
	<path class="st2" d="M345.8,101.6c-0.9,0-1.6-0.3-2.3-0.8c-0.6-0.5-1-1.2-1-2v-30c0-0.8,0.3-1.5,1-2c0.6-0.5,1.4-0.8,2.3-0.8
		c0.9,0,1.6,0.3,2.2,0.8c0.6,0.5,0.9,1.2,0.9,2v5c0.6-2.4,1.6-4.2,3.2-5.6c1.6-1.4,3.5-2,5.7-2c2.3,0,3.5,0.9,3.5,2.7
		c0,0.8-0.3,1.4-0.9,1.9c-0.6,0.5-1.4,0.8-2.3,0.8c-2.8,0-5,0.8-6.7,2.5c-1.7,1.7-2.5,3.9-2.5,6.7v18c0,0.8-0.3,1.5-0.9,2
		S346.7,101.6,345.8,101.6z"/>
</g>
<g class="st0">
	<path class="st2" d="M376.1,101.7c-3.8,0-6.8-1-9-2.9c-2.2-1.9-3.4-4.3-3.4-7.3c0-3.1,1.3-5.6,3.8-7.5c2.5-1.9,5.9-2.8,10.1-2.8
		h8.7v-3.3c0-4.8-2.6-7.1-7.7-7.1c-3.6,0-6.1,1.4-7.6,4.3c-0.8,1.3-1.8,2-3.1,2c-0.9,0-1.6-0.2-2.2-0.7c-0.5-0.5-0.8-1.1-0.8-1.7
		c0-0.8,0.3-1.6,0.8-2.4c1-2,2.7-3.5,4.9-4.7c2.3-1.1,4.9-1.7,7.9-1.7c4.3,0,7.8,1.1,10.3,3.2c2.5,2.1,3.8,5.2,3.8,9.4V99
		c0,0.8-0.3,1.4-0.8,1.9c-0.6,0.5-1.3,0.7-2.2,0.7c-0.9,0-1.6-0.3-2.2-0.8c-0.6-0.5-0.9-1.1-0.9-1.9v-3.6c-0.5,1.9-1.6,3.5-3.4,4.6
		C381.3,101.1,379,101.7,376.1,101.7z M377.1,97c2.9,0,5.1-0.8,6.7-2.5c1.6-1.7,2.5-3.6,2.5-6v-2.6h-8c-5.5,0-8.2,1.9-8.2,5.6
		c0,1.7,0.6,3,1.8,4S374.8,97,377.1,97z"/>
</g>
<g class="st0">
	<path class="st2" d="M412,101.7c-3.3,0-6.1-0.5-8.4-1.7c-2.3-1.1-3.8-2.6-4.7-4.5c-0.6-1-0.8-1.9-0.8-2.8c0-0.8,0.3-1.4,0.8-1.9
		c0.6-0.5,1.3-0.7,2.2-0.7c1.1,0,2,0.5,2.5,1.5c0.1,0.2,0.3,0.6,0.5,1.1s0.5,1,0.8,1.4c0.3,0.4,0.7,0.8,1.1,1.2
		c1.2,1,3.1,1.5,5.8,1.5c2.5,0,4.4-0.5,5.6-1.4c1.2-0.9,1.8-2.1,1.8-3.5c0-0.8-0.2-1.6-0.6-2.1c-0.4-0.6-1.1-1.1-2.1-1.6
		c-1-0.5-1.8-0.8-2.5-1c-0.7-0.2-1.8-0.6-3.3-1c-1.5-0.4-2.7-0.7-3.5-1c-0.8-0.3-1.9-0.7-3.2-1.3c-1.3-0.6-2.3-1.2-2.9-1.9
		c-0.6-0.7-1.2-1.5-1.8-2.6c-0.5-1.1-0.8-2.3-0.8-3.7c0-2.8,1.2-5.2,3.6-7.1c2.4-1.9,5.7-2.8,9.7-2.8c3.1,0,5.8,0.6,7.9,1.7
		c2.2,1.1,3.7,2.6,4.5,4.4c0.6,1,0.8,1.9,0.8,2.6s-0.3,1.4-0.8,1.9c-0.6,0.5-1.3,0.7-2.2,0.7c-1.1,0-1.9-0.5-2.6-1.5
		c-0.1-0.2-0.3-0.5-0.5-1c-0.2-0.5-0.5-0.9-0.7-1.3c-0.2-0.4-0.6-0.8-1-1.2c-1.2-1-2.9-1.5-5.3-1.5c-2.3,0-4.1,0.5-5.3,1.4
		c-1.2,0.9-1.8,2.2-1.8,3.8c0,0.8,0.2,1.6,0.6,2.1c0.4,0.6,1.1,1.1,2,1.6c0.9,0.5,1.7,0.8,2.5,1.1c0.7,0.2,1.8,0.6,3.3,1
		c1.9,0.5,3.4,0.9,4.5,1.3c1.1,0.4,2.3,0.9,3.8,1.7c1.4,0.8,2.4,1.8,3.1,2.9c0.7,1.2,1,2.6,1,4.3c0,2.7-1.2,5-3.6,6.9
		S416.3,101.7,412,101.7z"/>
</g>
<path class="st3" d="M35.4,139.6c36.5,0,66.1-29.6,66.1-66.1S71.9,7.5,35.4,7.5"/>
<path class="st4" d="M240.2,139.5c36.5,0,66.1-29.6,66.1-66.1S276.6,7.4,240.2,7.4"/>
</svg>
